<svg width="12" height="12" viewBox="0 0 12 12" fill="none" xmlns="http://www.w3.org/2000/svg">
<path d="M2.75 1.125C1.9215 1.125 1.25 1.7965 1.25 2.625V8.125C1.25 8.9535 1.9215 9.625 2.75 9.625H6C6.8285 9.625 7.5 8.9535 7.5 8.125V2.625C7.5 1.7965 6.8285 1.125 6 1.125H2.75ZM7.94336 2.16113C7.97886 2.31013 8 2.465 8 2.625V8.125C8 9.22775 7.10275 10.125 6 10.125H4.78027L7.46729 10.8262C7.59429 10.8594 7.72143 10.875 7.84668 10.875C8.51143 10.875 9.1184 10.4296 9.2959 9.75684L10.6997 4.43213C10.9115 3.62913 10.4305 2.80689 9.62646 2.59814L7.94336 2.16113ZM4.37061 3.125C4.5307 3.125 4.69092 3.18307 4.81592 3.29932C5.37042 3.81457 6.24561 4.73365 6.24561 5.3999C6.24561 5.9384 5.80118 6.375 5.25293 6.375C5.08268 6.375 4.92538 6.32866 4.78613 6.25391L5.23193 7.0332C5.29718 7.1972 5.17626 7.375 4.99951 7.375H3.74658C3.57083 7.375 3.44945 7.19891 3.5127 7.03516L3.96191 6.25C3.82091 6.327 3.66153 6.375 3.48828 6.375C2.94003 6.375 2.49561 5.9384 2.49561 5.3999C2.49561 4.73365 3.37079 3.81457 3.92529 3.29932C4.05042 3.18307 4.21051 3.125 4.37061 3.125Z" fill="#E5EAFA"/>
</svg>
