<svg width="10" height="10" viewBox="0 0 10 10" fill="none" xmlns="http://www.w3.org/2000/svg">
<path d="M9.18667 0.0866542C9 0.0866542 8.82667 0.166654 8.69334 0.306654L4.99334 4.00665L1.3 0.306654C1.23334 0.239988 1.15334 0.186654 1.06667 0.146654C0.980003 0.106654 0.88667 0.0866542 0.793337 0.0866542C0.653337 0.0866542 0.513337 0.126654 0.400003 0.206654C0.28667 0.286654 0.193337 0.393321 0.140003 0.526654C0.0866699 0.659988 0.0733366 0.799988 0.10667 0.939988C0.133337 1.07999 0.20667 1.19999 0.30667 1.29999L4.00667 4.99999L0.300003 8.69999C0.233337 8.76665 0.180003 8.83999 0.140003 8.92665C0.10667 9.01332 0.0866699 9.10665 0.0866699 9.19999C0.0866699 9.29332 0.10667 9.38665 0.140003 9.47332C0.173337 9.55999 0.22667 9.63999 0.293337 9.70665C0.360003 9.77332 0.440003 9.82665 0.52667 9.85999C0.613337 9.89332 0.70667 9.91332 0.800003 9.91332C0.893337 9.91332 0.98667 9.89332 1.07334 9.85332C1.16 9.81332 1.24 9.75999 1.3 9.69332L5 5.99332L8.7 9.69332C8.76667 9.75999 8.84 9.81332 8.92667 9.85332C9.01334 9.89332 9.10667 9.91332 9.2 9.91332C9.29334 9.91332 9.38667 9.89332 9.47334 9.85999C9.56 9.82665 9.64 9.77332 9.70667 9.70665C9.77334 9.63999 9.82667 9.55999 9.86 9.47332C9.89334 9.38665 9.91334 9.29332 9.91334 9.19999C9.91334 9.10665 9.89334 9.01332 9.85334 8.92665C9.81334 8.83999 9.76 8.75999 9.69334 8.69999L5.99334 4.99999L9.69334 1.29999C9.79334 1.19999 9.86667 1.07332 9.89334 0.933321C9.92 0.793321 9.90667 0.646654 9.85334 0.519988C9.8 0.386654 9.70667 0.279988 9.58667 0.199988C9.46667 0.119988 9.32667 0.0799876 9.18667 0.0866542Z" fill="#E5EAFA"/>
</svg>
