<svg width="24" height="24" viewBox="0 0 24 24" fill="none" xmlns="http://www.w3.org/2000/svg">
<path d="M12.4102 1.50985C7.54323 1.28075 3.5 5.17851 3.5 10.0001V12.7501V15.7501C3.5 17.1858 4.60643 18.3661 6.01172 18.4874C6.13582 20.4397 7.76785 22.0001 9.75 22.0001H10.2568C10.4853 22.3017 10.8435 22.5001 11.25 22.5001H12.75C13.439 22.5001 14 21.9396 14 21.2501C14 20.5606 13.439 20.0001 12.75 20.0001H11.25C10.8435 20.0001 10.4853 20.1985 10.2568 20.5001H9.75C8.58402 20.5001 7.64858 19.6305 7.52441 18.5001H8.25C8.6645 18.5001 9 18.1641 9 17.7501V12.7501C9 12.3361 8.6645 12.0001 8.25 12.0001H5V10.0001C5 6.01266 8.30479 2.818 12.3389 3.0079C16.0961 3.18456 19 6.43009 19 10.2188V12.0001H15.75C15.3355 12.0001 15 12.3361 15 12.7501V17.7501C15 18.1641 15.3355 18.5001 15.75 18.5001H17.75C19.2665 18.5001 20.5 17.2661 20.5 15.7501V12.0001V10.2188C20.5 5.66158 16.9899 1.72519 12.4102 1.50985Z" fill="#E5EAFA"/>
</svg>
