<svg width="17" height="17" viewBox="0 0 17 17" fill="none" xmlns="http://www.w3.org/2000/svg">
<path d="M13.7832 0.0939814C12.5668 0.0561232 11.3553 0.510966 10.4572 1.40909L6.36624 5.50007H2.98245C1.89518 5.50007 1.00003 6.39522 1.00003 7.48249C1.00003 8.14438 1.33135 8.76402 1.88219 9.13125L2.48441 9.53246C2.10859 10.1501 2.03823 10.9008 2.28665 11.5572C1.90892 11.6482 1.55069 11.8374 1.25719 12.1309C0.89769 12.4904 0.767334 12.9232 0.642773 13.3793C0.518212 13.8354 0.438491 14.3152 0.385611 14.7091C0.277933 15.5113 0.987647 16.2213 1.79023 16.1137H1.79105C2.18481 16.0608 2.66385 15.981 3.11999 15.8565C3.57612 15.732 4.00964 15.602 4.36917 15.2421C4.66245 14.9488 4.85114 14.5907 4.94209 14.2134C5.5987 14.4622 6.34982 14.3917 6.96764 14.0157L7.36885 14.6179C7.73608 15.1688 8.35572 15.5001 9.01761 15.5001C10.1049 15.5001 11 14.6049 11 13.5176V10.2917C11.0007 10.2436 10.9958 10.1955 10.9854 10.1485L15.0902 6.04369C16.4591 4.67477 16.8001 2.57661 15.9341 0.845121C15.8737 0.724366 15.7757 0.626436 15.655 0.565987C15.2221 0.34949 14.7656 0.208821 14.3041 0.140368C14.131 0.114698 13.957 0.0993897 13.7832 0.0939814ZM13.7434 1.34073C13.8688 1.34471 13.9943 1.35625 14.1193 1.37491C14.3804 1.41386 14.633 1.51226 14.8835 1.61661C15.3876 2.82687 15.1445 4.22179 14.2064 5.1599L6.52819 12.8381C6.11625 13.2501 5.46715 13.2501 5.05521 12.8381L4.48555 12.2685L4.47659 12.2579L4.24222 12.0235L4.23164 12.0146L3.66198 11.4449C3.25003 11.033 3.25003 10.3839 3.66198 9.97191L7.01322 6.62067C7.05765 6.58679 7.09733 6.5471 7.13122 6.50267L11.341 2.29287C11.9916 1.64225 12.8652 1.31285 13.7434 1.34073ZM12.25 3.41674C12.029 3.41674 11.8171 3.50453 11.6608 3.66081C11.5045 3.81709 11.4167 4.02906 11.4167 4.25007C11.4167 4.47108 11.5045 4.68304 11.6608 4.83932C11.8171 4.9956 12.029 5.0834 12.25 5.0834C12.471 5.0834 12.683 4.9956 12.8393 4.83932C12.9956 4.68304 13.0834 4.47108 13.0834 4.25007C13.0834 4.02906 12.9956 3.81709 12.8393 3.66081C12.683 3.50453 12.471 3.41674 12.25 3.41674ZM10.1667 5.50007C9.94568 5.50007 9.73372 5.58787 9.57744 5.74415C9.42116 5.90043 9.33336 6.11239 9.33336 6.3334C9.33336 6.55442 9.42116 6.76638 9.57744 6.92266C9.73372 7.07894 9.94568 7.16674 10.1667 7.16674C10.3877 7.16674 10.5997 7.07894 10.756 6.92266C10.9122 6.76638 11 6.55442 11 6.3334C11 6.11239 10.9122 5.90043 10.756 5.74415C10.5997 5.58787 10.3877 5.50007 10.1667 5.50007ZM2.98245 6.75007H5.11624L3.29495 8.57136L2.57555 8.09122C2.3714 7.95511 2.25003 7.7281 2.25003 7.48249C2.25003 7.0706 2.57056 6.75007 2.98245 6.75007ZM9.75003 11.3839V13.5176C9.75003 13.9295 9.42951 14.2501 9.01761 14.2501C8.772 14.2501 8.54499 14.1287 8.40889 13.9245L7.92874 13.2051L9.75003 11.3839ZM2.77086 12.7372C2.99371 12.7295 3.21887 12.8054 3.40563 12.9569L3.54316 13.0945C3.84916 13.4714 3.8365 14.0072 3.48538 14.3583L3.48457 14.3591C3.4591 14.3846 3.16007 14.5506 2.79121 14.6513C2.42261 14.7519 1.98529 14.8267 1.62503 14.8751C1.6734 14.5148 1.74808 14.0778 1.84883 13.7089C1.94958 13.34 2.11549 13.0402 2.14098 13.0147C2.31848 12.8372 2.54319 12.7451 2.77086 12.7372Z" fill="#E5EAFA"/>
</svg>
