<svg width="10" height="12" viewBox="0 0 10 12" fill="none" xmlns="http://www.w3.org/2000/svg">
<path d="M3.875 0.75C1.87625 0.75 0.25 2.37625 0.25 4.375V10.125C0.25 10.7452 0.75475 11.25 1.375 11.25H6.375C6.99525 11.25 7.5 10.7452 7.5 10.125V4.375C7.5 2.37625 5.87375 0.75 3.875 0.75ZM8.875 3.5C8.67635 3.50002 8.48362 3.56764 8.3285 3.69173C8.17337 3.81582 8.06509 3.989 8.02146 4.1828C7.97782 4.3766 8.00143 4.57948 8.0884 4.75808C8.17537 4.93668 8.32053 5.08037 8.5 5.16553V6.625C8.5 6.83175 8.33175 7 8.125 7H8V7.75H8.125C8.74525 7.75 9.25 7.24525 9.25 6.625V5.16455C9.42892 5.07909 9.5735 4.93539 9.66007 4.75701C9.74664 4.57862 9.77005 4.37612 9.72647 4.18269C9.68289 3.98926 9.57491 3.81636 9.42021 3.69233C9.26552 3.5683 9.07328 3.50048 8.875 3.5ZM2 4.75H2.5V7.5H2C1.72375 7.5 1.5 7.27625 1.5 7V5.25C1.5 4.97375 1.72375 4.75 2 4.75ZM3.25 4.75H4.5V7.5H3.25V4.75ZM5.25 4.75H5.75C6.02625 4.75 6.25 4.97375 6.25 5.25V7C6.25 7.27625 6.02625 7.5 5.75 7.5H5.25V4.75Z" fill="#E5EAFA"/>
</svg>
