<svg width="10" height="10" viewBox="0 0 10 10" fill="none" xmlns="http://www.w3.org/2000/svg">
<path d="M8.33594 8.57422C7.45481 9.45451 6.25015 9.99516 4.92285 10L4.93066 9.85352C5.9224 9.74265 6.35812 9.24849 6.45703 9.11719C6.68032 9.0833 7.88376 8.88591 8.30469 8.51953L8.33594 8.57422ZM4.11426 7.08008C4.29281 7.18972 5.04688 7.61899 6.00879 7.66699C6.10493 8.03692 6.28565 8.83701 6.32617 9.01855C6.23467 9.13485 5.81321 9.60437 4.85254 9.69434L4.83203 9.69336C4.81824 9.69202 4.8035 9.68982 4.78906 9.68848C4.76736 9.68713 4.74436 9.68529 4.7207 9.68262C4.7028 9.68126 4.68458 9.67909 4.66602 9.67773C4.64547 9.67571 4.62343 9.67263 4.60156 9.66992C4.58771 9.66858 4.57409 9.66706 4.55957 9.66504C4.5584 9.66494 4.55682 9.66513 4.55566 9.66504C4.5306 9.66235 4.50521 9.65864 4.47949 9.65527C4.41129 9.64582 4.33883 9.63301 4.2627 9.61816C4.24413 9.61478 4.22431 9.61148 4.20508 9.60742C4.18589 9.60404 4.16634 9.59945 4.14648 9.59473C4.1268 9.59071 4.10725 9.58542 4.08691 9.58008C4.06636 9.57467 4.04595 9.56986 4.02539 9.56445C3.98776 9.55502 3.94879 9.54367 3.90918 9.53223C3.88479 9.52416 3.86 9.51685 3.83496 9.50879C3.81311 9.50271 3.79106 9.49376 3.76855 9.48633C3.74601 9.47957 3.7234 9.471 3.7002 9.46289C3.68591 9.45824 3.67151 9.45321 3.65723 9.44727C3.64264 9.44186 3.62689 9.43577 3.6123 9.42969C3.59598 9.42303 3.57947 9.41682 3.5625 9.41016C3.55852 9.4088 3.55249 9.40633 3.54785 9.4043C3.54537 9.40361 3.54353 9.40203 3.54102 9.40137C3.51118 9.3892 3.4807 9.3768 3.4502 9.36328C3.43969 9.35859 3.42945 9.35332 3.41895 9.34863C3.40838 9.34392 3.39826 9.33968 3.3877 9.33496C3.38372 9.33293 3.37964 9.33015 3.375 9.32812C3.36248 9.32209 3.34943 9.31659 3.33691 9.31055C3.29865 9.29237 3.25962 9.27311 3.2207 9.25293C3.20363 9.24423 3.1857 9.23496 3.16797 9.22559C3.16399 9.22356 3.15957 9.22078 3.15625 9.21875H3.15527C3.14678 9.21409 3.13805 9.20974 3.12891 9.20508C3.11963 9.19968 3.11084 9.19486 3.10156 9.18945C3.06184 9.16784 3.02151 9.14344 2.98047 9.11914L2.97754 9.11816C2.95841 9.10607 2.93841 9.09481 2.91797 9.08203V9.07812C2.91268 9.07542 2.90732 9.07143 2.90137 9.06738L2.89258 9.0498C2.76657 8.78535 2.53997 8.30787 2.5625 7.8584L3.12207 7.56055L3.125 7.55859C3.51922 7.37144 3.97598 7.14787 4.11426 7.08008ZM1.05664 6.23145C1.22241 6.56548 1.68257 7.38568 2.40332 7.85156C2.37945 8.30257 2.57794 8.76303 2.71387 9.05176L2.05078 9.06445H2.0498C1.26014 8.48565 0.64486 7.67377 0.302734 6.72852L0.386719 6.24512L1.05664 6.23145ZM9.79199 5.37012C9.7058 6.56828 9.21102 7.64202 8.45117 8.4541L8.41113 8.38281C8.41957 8.36692 8.42711 8.35151 8.43555 8.33496C8.59004 8.03068 8.82212 7.57274 8.95605 6.85059C9.36235 6.47307 9.68978 5.53168 9.74414 5.37012H9.79199ZM5.18457 3.5498C5.66532 3.63569 6.84258 3.88527 7.12305 4.12598C7.12369 4.12723 7.12402 4.12695 7.12402 4.12695C7.22282 4.23514 7.41845 5.25535 7.55371 6.19727C7.21629 6.54812 6.37505 7.38136 6.05859 7.50879C5.003 7.46957 4.17171 6.92728 4.16309 6.92188L4.16113 6.9209C4.05902 6.5747 3.77389 5.21699 3.71289 4.92285L5.18457 3.5498ZM8.1084 2.75781C8.55203 2.90301 9.02454 3.09854 9.10156 3.19531C9.11018 3.21763 9.12373 3.24924 9.13965 3.28711C9.27299 3.60438 9.60341 4.38912 9.60938 5.07324V5.08496C9.60805 5.15039 9.60394 5.21558 9.59668 5.27832L9.5918 5.3252H9.59082C9.46743 5.69583 9.17542 6.4084 8.86719 6.71191C8.56748 6.5733 7.88169 6.24941 7.70996 6.16895C7.65427 5.7829 7.44812 4.40735 7.27441 4.06836L8.1084 2.75781ZM1.77441 4.48926C1.63385 4.65763 1.25095 5.18122 1.05469 6.06836L0.27832 6.08398L0.0556641 5.75488C0.0192038 5.50813 8.5383e-06 5.25591 0 4.99902C0 4.2376 0.167708 3.5152 0.467773 2.86914L0.604492 2.59668L1.47656 2.59473L1.77441 4.48926ZM3.21094 1.24023C3.59832 1.25313 4.5719 1.34555 4.84668 1.63867C4.89573 1.88947 5.04566 3.18073 5.07422 3.43066L3.61133 4.79785L1.92285 4.40039L1.63086 2.53809C1.7601 2.39342 2.37541 1.73079 3.21094 1.24023ZM6.83789 0.40625C7.91253 0.878202 8.78884 1.73104 9.30469 2.79785L9.14453 3.02344C8.89984 2.85181 8.3194 2.65536 8.13086 2.59375C7.8703 2.09748 7.43648 1.60121 6.8418 1.11914L6.83789 0.40625ZM4.90527 0C5.52972 5.54763e-05 6.1285 0.119837 6.67871 0.338867L6.68262 1.08301C5.66263 1.18365 5.10756 1.41794 4.93848 1.5C4.76674 1.33907 4.4311 1.22056 3.94043 1.14551C3.65742 1.10227 3.39937 1.08549 3.27344 1.08008L3.30176 0.273438C3.80436 0.0962796 4.34432 0 4.90527 0Z" fill="#E5EAFA"/>
</svg>
