<svg width="8" height="10" viewBox="0 0 8 10" fill="none" xmlns="http://www.w3.org/2000/svg">
<path d="M4 0C3.33696 0 2.70107 0.263392 2.23223 0.732233C1.76339 1.20107 1.5 1.83696 1.5 2.5C1.5 3.16304 1.76339 3.79893 2.23223 4.26777C2.70107 4.73661 3.33696 5 4 5C4.66304 5 5.29893 4.73661 5.76777 4.26777C6.23661 3.79893 6.5 3.16304 6.5 2.5C6.5 1.83696 6.23661 1.20107 5.76777 0.732233C5.29893 0.263392 4.66304 0 4 0ZM7.00525 6H0.99475C0.44625 6 0 6.44625 0 6.99475V7.375C0 8.203 0.47125 8.919 1.32675 9.39075C2.0385 9.78375 2.988 10 4 10C5.9265 10 8 9.1785 8 7.375V6.99475C8 6.44625 7.55375 6 7.00525 6Z" fill="#E5EAFA"/>
</svg>
