<svg width="24" height="24" viewBox="0 0 24 24" fill="none" xmlns="http://www.w3.org/2000/svg">
<path d="M2.75 4C2.13018 4 1.56438 4.25594 1.16016 4.66016C0.755937 5.06438 0.5 5.63018 0.5 6.25C0.5 7.48361 1.51639 8.5 2.75 8.5H4.5V20.75C4.5 21 4.62508 21.2301 4.83008 21.3701C5.03508 21.5101 5.29527 21.5403 5.53027 21.4453L7.71484 20.5703L9.41504 21.4199C9.61504 21.5199 9.84969 21.5246 10.0547 21.4346L12 20.5703L13.9453 21.4346C14.1503 21.5246 14.385 21.5199 14.585 21.4199L16.2852 20.5703L18.4697 21.4453C18.5597 21.4803 18.655 21.5 18.75 21.5C18.9 21.5 19.0449 21.4551 19.1699 21.3701C19.3749 21.2301 19.5 21 19.5 20.75V8.5H21.25C21.8698 8.5 22.4356 8.24406 22.8398 7.83984C23.2441 7.43562 23.5 6.86982 23.5 6.25C23.5 5.01639 22.4836 4 21.25 4H2.75ZM2.75 5.5H4.5V7H2.75C2.32361 7 2 6.67639 2 6.25C2 6.03982 2.08492 5.85648 2.2207 5.7207C2.35648 5.58492 2.53982 5.5 2.75 5.5ZM19.5 5.5H21.25C21.6764 5.5 22 5.82361 22 6.25C22 6.46018 21.9151 6.64352 21.7793 6.7793C21.6435 6.91508 21.4602 7 21.25 7H19.5V5.5ZM8.75 8H15.25C15.665 8 16 8.335 16 8.75C16 9.165 15.665 9.5 15.25 9.5H8.75C8.335 9.5 8 9.165 8 8.75C8 8.335 8.335 8 8.75 8ZM8.75 11.5H15.25C15.665 11.5 16 11.835 16 12.25C16 12.665 15.665 13 15.25 13H8.75C8.335 13 8 12.665 8 12.25C8 11.835 8.335 11.5 8.75 11.5ZM8.75 15H12.75C13.165 15 13.5 15.335 13.5 15.75C13.5 16.165 13.165 16.5 12.75 16.5H8.75C8.335 16.5 8 16.165 8 15.75C8 15.335 8.335 15 8.75 15Z" fill="#E5EAFA"/>
</svg>
